<?xml version="1.0" encoding="UTF-8" standalone="no"?>
<svg
   xmlns:dc="http://purl.org/dc/elements/1.1/"
   xmlns:cc="http://creativecommons.org/ns#"
   xmlns:rdf="http://www.w3.org/1999/02/22-rdf-syntax-ns#"
   xmlns:svg="http://www.w3.org/2000/svg"
   xmlns="http://www.w3.org/2000/svg"
   xmlns:sodipodi="http://sodipodi.sourceforge.net/DTD/sodipodi-0.dtd"
   xmlns:inkscape="http://www.inkscape.org/namespaces/inkscape"
   version="1.1"
   width="17"
   height="17"
   id="svg3468"
   inkscape:version="0.91 r13725"
   sodipodi:docname="lightOn.svg">
  <metadata
     id="metadata3476">
    <rdf:RDF>
      <cc:Work
         rdf:about="">
        <dc:format>image/svg+xml</dc:format>
        <dc:type
           rdf:resource="http://purl.org/dc/dcmitype/StillImage" />
        <dc:title></dc:title>
      </cc:Work>
    </rdf:RDF>
  </metadata>
  <defs
     id="defs3474" />
  <sodipodi:namedview
     pagecolor="#ffffff"
     bordercolor="#666666"
     borderopacity="1"
     objecttolerance="10"
     gridtolerance="10"
     guidetolerance="10"
     inkscape:pageopacity="0"
     inkscape:pageshadow="2"
     inkscape:window-width="1467"
     inkscape:window-height="1091"
     id="namedview3472"
     showgrid="false"
     inkscape:zoom="51.119661"
     inkscape:cx="8.71507"
     inkscape:cy="8.0991419"
     inkscape:window-x="848"
     inkscape:window-y="146"
     inkscape:window-maximized="0"
     inkscape:current-layer="svg3468" />
  <path
     style="fill:#e5e9e8;fill-opacity:1;fill-rule:nonzero;stroke:none"
     d="M 7.4478985,0.06536203 C 2.7898708,0.64638452 -0.51565945,4.8940707 0.06536304,9.5520985 0.64638552,14.210126 4.8940717,17.515656 9.5520995,16.934634 14.210127,16.353612 17.515657,12.105925 16.934635,7.4478975 16.353613,2.7898698 12.105926,-0.51566045 7.4478985,0.06536203 M 10.173965,14.54721 9.3507751,15.15769 8.1558915,15.183639 7.3189849,14.543687 7.2666597,11.788695 C 0.1946204,7.0479547 4.4841475,2.8861951 8.325212,2.7439792 13.078698,2.5679807 16.33667,7.2572086 10.141808,11.781942 Z"
     id="path3470"
     inkscape:connector-curvature="0"
     sodipodi:nodetypes="csssccccccscc" />
  <path
     style="fill:#ebd37e;fill-opacity:0.94117647"
     d="M 7.7872833,14.902617 C 7.5879377,14.748677 7.4014314,14.604291 7.3728244,14.581757 l -0.052012,-0.04097 -0.021818,-1.299024 c -0.012,-0.714463 -0.026177,-1.335625 -0.031504,-1.38036 -0.00904,-0.07591 -0.019743,-0.08825 -0.1603621,-0.184858 C 4.9454221,10.191367 3.7346765,8.6677985 3.5113535,7.1517233 3.4688936,6.8634751 3.4833146,6.3526851 3.5415876,6.0808361 3.7396893,5.1566729 4.3358989,4.3493123 5.287109,3.7171285 6.3629585,3.0021081 7.7199266,2.6574313 9.0593602,2.7589576 10.497491,2.8679649 11.714515,3.3934205 12.55133,4.2666313 c 0.536508,0.5598426 0.850325,1.1935991 0.959896,1.9385172 0.03914,0.2661023 0.02944,0.8507742 -0.01835,1.1060625 -0.240782,1.2862122 -1.02709,2.4952493 -2.428417,3.733965 -0.179217,0.15842 -0.602553,0.499332 -0.798167,0.642763 l -0.132719,0.09731 0.01051,0.538449 c 0.0058,0.296148 0.01539,0.917115 0.02136,1.379929 l 0.01086,0.841478 -0.4158536,0.307786 -0.4158533,0.307786 -0.1883687,0 c -0.1036028,0 -0.3724477,0.0049 -0.5974331,0.01091 l -0.4090645,0.01091 -0.3624465,-0.27989 z"
     id="path5156"
     inkscape:connector-curvature="0" />
</svg>
