<?xml version="1.0" encoding="UTF-8" standalone="no"?>
<svg
   xmlns:dc="http://purl.org/dc/elements/1.1/"
   xmlns:cc="http://creativecommons.org/ns#"
   xmlns:rdf="http://www.w3.org/1999/02/22-rdf-syntax-ns#"
   xmlns:svg="http://www.w3.org/2000/svg"
   xmlns="http://www.w3.org/2000/svg"
   xmlns:sodipodi="http://sodipodi.sourceforge.net/DTD/sodipodi-0.dtd"
   xmlns:inkscape="http://www.inkscape.org/namespaces/inkscape"
   version="1.1"
   width="17"
   height="17"
   id="svg3468"
   inkscape:version="0.91 r13725"
   sodipodi:docname="tapeOn.svg">
  <metadata
     id="metadata3476">
    <rdf:RDF>
      <cc:Work
         rdf:about="">
        <dc:format>image/svg+xml</dc:format>
        <dc:type
           rdf:resource="http://purl.org/dc/dcmitype/StillImage" />
        <dc:title></dc:title>
      </cc:Work>
    </rdf:RDF>
  </metadata>
  <defs
     id="defs3474" />
  <sodipodi:namedview
     pagecolor="#ffffff"
     bordercolor="#666666"
     borderopacity="1"
     objecttolerance="10"
     gridtolerance="10"
     guidetolerance="10"
     inkscape:pageopacity="0"
     inkscape:pageshadow="2"
     inkscape:window-width="1467"
     inkscape:window-height="1091"
     id="namedview3472"
     showgrid="false"
     inkscape:zoom="18.929473"
     inkscape:cx="6.4852899"
     inkscape:cy="7.9916665"
     inkscape:window-x="207"
     inkscape:window-y="79"
     inkscape:window-maximized="0"
     inkscape:current-layer="svg3468" />
  <g
     id="g4341"
     transform="translate(0.53124999,-1.21875)"
     style="fill:#ffffff;fill-opacity:1">
    <path
       style="fill:#e5e9e8;fill-opacity:1"
       d="m 7.7851562,1.2519531 c -0.2871259,0.00657 -0.5780139,0.026186 -0.8691406,0.0625 -4.6580278,0.5810225 -7.9638349,4.8302534 -7.38281247,9.4882809 0.58102238,4.658028 4.83025407,7.963835 9.48828087,7.382813 4.658028,-0.581022 7.963835,-4.830254 7.382813,-9.4882814 C 15.859589,4.3303645 12.092045,1.1534201 7.7851562,1.2519531 Z M 9.9758741,4.0839844 C 10.395628,4.0057874 10.83852,4.1786474 11.089155,4.5585937 L 14.595015,9.875 c 0.334176,0.506597 0.196048,1.183398 -0.310547,1.517578 l -5.3144529,3.50586 c -0.506596,0.33418 -1.1833983,0.196048 -1.5175784,-0.310547 l -2.598798,-3.815893 -1.9695403,1.202045 0.1679679,0.248418 -0.6057467,0.383935 -0.9656544,-1.57315 C 2.0549662,10.669617 2.9229629,10.102457 4.0579055,9.4453125 L 3.9446242,9.2714844 C 3.6104443,8.764889 3.7505288,8.0880863 4.2571242,7.7539062 L 9.5715771,4.2480469 C 9.6982261,4.1645019 9.8359561,4.11005 9.9758741,4.0839844 Z"
       id="rect4339"
       inkscape:connector-curvature="0"
       sodipodi:nodetypes="sssssssccccccccccccccs" />
  </g>
  <path
     style="fill:#ebd37f;fill-opacity:0"
     d="M 8.5729853,13.808941 C 8.3946823,13.742207 8.2028112,13.621916 8.1041717,13.515025 8.0603306,13.467516 7.332922,12.378042 6.4877079,11.09397 5.6424938,9.8098987 4.9293551,8.7444235 4.902955,8.7262478 4.870001,8.7035596 4.3757468,8.987418 3.3262201,9.6317921 2.4854162,10.148017 1.7724294,10.586622 1.7418051,10.606468 c -0.0488,0.03163 -0.047646,0.04969 0.00934,0.146154 0.084052,0.142289 0.083932,0.142875 -0.042648,0.208332 L 1.6008278,11.016632 1.3742668,10.674526 1.1477057,10.33242 1.2671443,10.251509 C 1.4776264,10.108924 3.1186571,9.1038675 3.852,8.6684035 4.2423577,8.4366065 4.5658736,8.2432326 4.5709242,8.2386839 4.5759749,8.2341348 4.5196072,8.1124945 4.4456627,7.9683722 4.3375782,7.7577083 4.3108104,7.6630512 4.3091388,7.4855916 4.3043185,6.9738476 4.4601144,6.7545517 5.1520846,6.299075 5.4437502,6.1070917 6.6825603,5.2894872 7.9049963,4.4821762 9.1274322,3.6748652 10.203251,2.9801029 10.295704,2.93826 c 0.365794,-0.1655532 0.885545,-0.063466 1.16824,0.2294613 0.126935,0.1315296 3.605054,5.3774621 3.743315,5.6459177 0.09712,0.1885775 0.117063,0.5522567 0.04231,0.7716396 -0.121809,0.3574889 -0.209258,0.4370394 -1.199304,1.0909854 -3.352894,2.214655 -4.5576135,3.003167 -4.6974624,3.074577 -0.1974287,0.100812 -0.587959,0.129908 -0.7798193,0.0581 z"
     id="path5017"
     inkscape:connector-curvature="0" />
  <path
     style="fill:#ebd37e;fill-opacity:0.94117647"
     d="M 8.6112148,13.816989 C 8.1965937,13.691732 8.2563708,13.767246 6.3244826,10.928253 L 5.3841833,9.5464425 4.5585758,10.052388 c -0.4540842,0.27827 -0.8908315,0.543497 -0.9705496,0.589395 -0.1593115,0.09172 -0.1798962,0.159426 -0.079576,0.261724 0.053034,0.05408 0.037593,0.09022 -0.078431,0.183593 -0.079456,0.06394 -0.2139522,0.157305 -0.2988806,0.207473 L 2.9767241,11.385788 2.5670176,10.712131 C 2.3416789,10.341619 2.1246384,9.987795 2.0847053,9.9258546 2.0149204,9.8176112 2.0465535,9.7917663 2.8989478,9.2605931 3.3867142,8.9566395 3.9581462,8.6064201 4.1687965,8.4823274 4.3794468,8.3582352 4.5517971,8.2362164 4.5517971,8.2111745 c 0,-0.025041 -0.046863,-0.1225908 -0.1041409,-0.216776 C 4.2070534,7.5987588 4.268446,7.0736963 4.5950548,6.7337673 4.7702498,6.5514273 9.8168723,3.18726 10.255355,2.960512 c 0.368322,-0.1904669 0.962896,-0.073901 1.248886,0.2448435 0.126078,0.1405176 3.579955,5.3743539 3.700724,5.6078965 0.105863,0.2047157 0.0994,0.67363 -0.01253,0.9095076 -0.05001,0.1053838 -0.188398,0.272025 -0.307533,0.3703134 -0.360346,0.29729 -5.4859773,3.650512 -5.6789488,3.715205 -0.202975,0.06805 -0.3892961,0.07078 -0.5947414,0.0087 z"
     id="path5104"
     inkscape:connector-curvature="0" />
</svg>
